<svg width="33" height="33" viewBox="0 0 33 33" fill="none" xmlns="http://www.w3.org/2000/svg">
<path d="M25.2574 6.46582H26.499V29.2668H25.2574V6.46582Z" fill="#C2C7E5"/>
<path d="M26.499 6.04522V5.45947H25.2574V6.04522H22.0584V7.18991H29.6959V6.04522H26.499ZM22.0584 8.10978H29.6959V9.25447H22.0584V8.10978Z" fill="#F5BB1B"/>
<path d="M7.04138 6.46582H8.28301V29.2668H7.04138V6.46582Z" fill="#C2C7E5"/>
<path d="M4.35599 4.46729L11.4097 7.40635L10.9684 8.46441L3.91461 5.52535L4.35599 4.46729Z" fill="#F5BB1B"/>
<path d="M2.3533 11.1953H12.5874V12.34H2.3533V11.1953Z" fill="#35464E"/>
<path d="M2.85037 12.3379H12.0924V16.7104H2.85037V12.3379Z" fill="#E72845"/>
<path d="M2.3533 16.7146H12.5874V17.8634H2.3533V16.7146Z" fill="#35464E"/>
<path d="M2.85037 12.3379H12.0924V13.5981H2.85037V12.3379Z" fill="#C7161E"/>
<path d="M4.37869 12.3379H5.73376V15.3161H4.37869V12.3379ZM9.24619 12.3379H10.6033V15.3161H9.24619V12.3379Z" fill="#35464E"/>
<path d="M20.7591 11.1953H30.9932V12.34H20.7591V11.1953Z" fill="#35464E"/>
<path d="M21.2582 12.3379H30.4982V16.7104H21.2582V12.3379Z" fill="#E72845"/>
<path d="M20.7591 16.7146H30.9932V17.8634H20.7591V16.7146Z" fill="#35464E"/>
<path d="M21.2582 12.3379H30.4982V13.5981H21.2582V12.3379Z" fill="#C7161E"/>
<path d="M22.7844 12.3379H24.1374V15.3161H22.7844V12.3379ZM27.654 12.3379H29.007V15.3161H27.654V12.3379Z" fill="#35464E"/>
<path d="M23.4403 28.3655L22.3637 29.2627L20.6766 27.2414L21.7511 26.3442L23.4403 28.3655ZM11.8243 26.3442L12.9009 27.2414L11.2138 29.2627L10.1351 28.3655L11.8243 26.3442Z" fill="#C2C7E5"/>
<path d="M9.56174 21.6376C9.56174 22.5897 9.74926 23.5324 10.1136 24.412C10.4779 25.2915 11.0119 26.0907 11.6851 26.7639C12.3583 27.4371 13.1575 27.9711 14.0371 28.3355C14.9167 28.6998 15.8594 28.8873 16.8114 28.8873C17.7635 28.8873 18.7062 28.6998 19.5858 28.3355C20.4653 27.9711 21.2645 27.4371 21.9377 26.7639C22.6109 26.0907 23.1449 25.2915 23.5093 24.412C23.8736 23.5324 24.0611 22.5897 24.0611 21.6376C24.0611 19.7149 23.2973 17.8709 21.9377 16.5113C20.5781 15.1517 18.7342 14.3879 16.8114 14.3879C14.8887 14.3879 13.0447 15.1517 11.6851 16.5113C10.3255 17.8709 9.56174 19.7149 9.56174 21.6376Z" fill="#526C78"/>
<path d="M16.8114 29.4607C14.7375 29.4585 12.7492 28.6335 11.2828 27.1669C9.81654 25.7002 8.99209 23.7116 8.99045 21.6377C8.99263 19.5641 9.81733 17.576 11.2836 16.1098C12.7498 14.6435 14.7379 13.8188 16.8114 13.8167C18.885 13.8188 20.8731 14.6435 22.3393 16.1098C23.8056 17.576 24.6303 19.5641 24.6324 21.6377C24.6308 23.7116 23.8064 25.7002 22.34 27.1669C20.8737 28.6335 18.8854 29.4585 16.8114 29.4607ZM16.8114 14.9634C15.0416 14.965 13.3448 15.6687 12.0931 16.9199C10.8415 18.1712 10.1373 19.8678 10.1351 21.6377C10.1351 25.3192 13.1299 28.314 16.8114 28.314C20.493 28.314 23.4898 25.3192 23.4898 21.6377C23.4871 19.8677 22.7825 18.171 21.5305 16.9198C20.2785 15.6686 18.5814 14.965 16.8114 14.9634Z" fill="#263137"/>
</svg>
