<svg width="29" height="29" viewBox="0 0 29 29" fill="none" xmlns="http://www.w3.org/2000/svg">
<path d="M4.93887 22.5507C4.30449 21.9163 3.9873 21.146 3.9873 20.2397C3.9873 19.3335 4.30449 18.5632 4.93887 17.9288C5.57324 17.2944 6.34355 16.9772 7.2498 16.9772C7.713 16.9772 8.15605 17.0678 8.57897 17.2491C9.00189 17.4303 9.36439 17.7022 9.66647 18.0647V7.91471L22.6863 5.49805V17.823C22.6863 18.7293 22.3691 19.4996 21.7347 20.134C21.1003 20.7684 20.33 21.0855 19.4238 21.0855C18.5175 21.0855 17.7472 20.7684 17.1128 20.134C16.4784 19.4996 16.1613 18.7293 16.1613 17.823C16.1613 16.9168 16.4784 16.1465 17.1128 15.5121C17.7472 14.8777 18.5175 14.5605 19.4238 14.5605C19.887 14.5605 20.33 14.6512 20.7529 14.8324C21.1758 15.0137 21.5383 15.2855 21.8404 15.648V10.0293L10.5123 12.1439V20.2397C10.5123 21.146 10.1951 21.9163 9.56074 22.5507C8.92637 23.185 8.15605 23.5022 7.2498 23.5022C6.34355 23.5022 5.57324 23.185 4.93887 22.5507Z" fill="#FDB541"/>
</svg>
