<svg width="51" height="51" viewBox="0 0 51 51" fill="none" xmlns="http://www.w3.org/2000/svg">
<path d="M47.3221 47.3222L43.5869 34.5557C44.2598 33.1174 44.7782 31.6434 45.1419 30.1336C45.5056 28.6241 45.6875 27.0796 45.6875 25.5C45.6875 22.7074 45.1577 20.083 44.098 17.6269C43.0383 15.1707 41.6002 13.0342 39.7837 11.2173C37.9672 9.40047 35.831 7.9622 33.3752 6.90253C30.9194 5.84251 28.2956 5.3125 25.5037 5.3125C22.7115 5.3125 20.0869 5.84233 17.63 6.902C15.1732 7.96167 13.0362 9.39976 11.2189 11.2163C9.4017 13.0328 7.96289 15.169 6.90252 17.6248C5.8425 20.0805 5.31249 22.7044 5.31249 25.4963C5.31249 28.2885 5.8425 30.9131 6.90252 33.3699C7.96218 35.8268 9.40046 37.9638 11.2173 39.7811C13.0342 41.5983 15.1707 43.0371 17.6269 44.0975C20.083 45.1575 22.7074 45.6875 25.5 45.6875C27.0796 45.6875 28.6241 45.5056 30.1336 45.1419C31.6434 44.7782 33.1174 44.2599 34.5557 43.5869L47.3221 47.3222ZM42.6062 42.6062L35.8062 40.5875C35.2831 40.4458 34.7784 40.386 34.2922 40.4079C33.8059 40.4295 33.3189 40.5602 32.8312 40.8C31.6979 41.3667 30.5114 41.7917 29.2719 42.075C28.0323 42.3583 26.775 42.5 25.5 42.5C20.7542 42.5 16.7344 40.8531 13.4406 37.5594C10.1469 34.2656 8.49999 30.2458 8.49999 25.5C8.49999 20.7542 10.1469 16.7344 13.4406 13.4406C16.7344 10.1469 20.7542 8.5 25.5 8.5C30.2458 8.5 34.2656 10.1469 37.5594 13.4406C40.8531 16.7344 42.5 20.7542 42.5 25.5C42.5 26.775 42.3583 28.0323 42.075 29.2719C41.7917 30.5115 41.3667 31.6979 40.8 32.8312C40.5521 33.2917 40.4159 33.7786 40.3915 34.2922C40.367 34.8057 40.4324 35.3104 40.5875 35.8062L42.6062 42.6062ZM27.0937 33.4687H23.9062V27.0938H17.5312V23.9062H23.9062V17.5312H27.0937V23.9062H33.4687V27.0938H27.0937V33.4687Z" fill="#FCA311"/>
</svg>
