<svg width="44" height="44" viewBox="0 0 44 44" fill="none" xmlns="http://www.w3.org/2000/svg">
<path d="M9.73071 39.4167C8.80457 39.4167 8.02067 39.0959 7.379 38.4542C6.73734 37.8125 6.4165 37.0286 6.4165 36.1025V11.5642C6.4165 10.6381 6.73734 9.85419 7.379 9.21253C8.02067 8.57086 8.80457 8.25003 9.73071 8.25003H12.269V4.37207H15.0895V8.25003H28.9807V4.37207H31.7307V8.25003H34.269C35.1951 8.25003 35.979 8.57086 36.6207 9.21253C37.2623 9.85419 37.5832 10.6381 37.5832 11.5642V36.1025C37.5832 37.0286 37.2623 37.8125 36.6207 38.4542C35.979 39.0959 35.1951 39.4167 34.269 39.4167H9.73071ZM9.73071 36.6667H34.269C34.4101 36.6667 34.5394 36.6079 34.6567 36.4902C34.7744 36.3729 34.8332 36.2437 34.8332 36.1025V18.8976H9.1665V36.1025C9.1665 36.2437 9.22532 36.3729 9.34296 36.4902C9.4603 36.6079 9.58955 36.6667 9.73071 36.6667ZM9.1665 16.1476H34.8332V11.5642C34.8332 11.4231 34.7744 11.2938 34.6567 11.1765C34.5394 11.0588 34.4101 11 34.269 11H9.73071C9.58955 11 9.4603 11.0588 9.34296 11.1765C9.22532 11.2938 9.1665 11.4231 9.1665 11.5642V16.1476ZM21.9998 25.8079C21.551 25.8079 21.1684 25.6497 20.8522 25.3335C20.5362 25.0175 20.3783 24.635 20.3783 24.1858C20.3783 23.737 20.5362 23.3544 20.8522 23.0382C21.1684 22.7222 21.551 22.5642 21.9998 22.5642C22.4487 22.5642 22.8313 22.7222 23.1475 23.0382C23.4634 23.3544 23.6214 23.737 23.6214 24.1858C23.6214 24.635 23.4634 25.0175 23.1475 25.3335C22.8313 25.6497 22.4487 25.8079 21.9998 25.8079ZM13.5188 25.3335C13.2029 25.0175 13.0449 24.635 13.0449 24.1858C13.0449 23.737 13.2029 23.3544 13.5188 23.0382C13.8351 22.7222 14.2176 22.5642 14.6665 22.5642C15.1154 22.5642 15.4979 22.7222 15.8142 23.0382C16.1301 23.3544 16.2881 23.737 16.2881 24.1858C16.2881 24.635 16.1301 25.0175 15.8142 25.3335C15.4979 25.6497 15.1154 25.8079 14.6665 25.8079C14.2176 25.8079 13.8351 25.6497 13.5188 25.3335ZM29.3332 25.8079C28.8843 25.8079 28.5018 25.6497 28.1855 25.3335C27.8696 25.0175 27.7116 24.635 27.7116 24.1858C27.7116 23.737 27.8696 23.3544 28.1855 23.0382C28.5018 22.7222 28.8843 22.5642 29.3332 22.5642C29.782 22.5642 30.1646 22.7222 30.4808 23.0382C30.7968 23.3544 30.9548 23.737 30.9548 24.1858C30.9548 24.635 30.7968 25.0175 30.4808 25.3335C30.1646 25.6497 29.782 25.8079 29.3332 25.8079ZM21.9998 33C21.551 33 21.1684 32.8419 20.8522 32.5257C20.5362 32.2097 20.3783 31.8273 20.3783 31.3784C20.3783 30.9293 20.5362 30.5467 20.8522 30.2308C21.1684 29.9145 21.551 29.7564 21.9998 29.7564C22.4487 29.7564 22.8313 29.9145 23.1475 30.2308C23.4634 30.5467 23.6214 30.9293 23.6214 31.3784C23.6214 31.8273 23.4634 32.2097 23.1475 32.5257C22.8313 32.8419 22.4487 33 21.9998 33ZM13.5188 32.5257C13.2029 32.2097 13.0449 31.8273 13.0449 31.3784C13.0449 30.9293 13.2029 30.5467 13.5188 30.2308C13.8351 29.9145 14.2176 29.7564 14.6665 29.7564C15.1154 29.7564 15.4979 29.9145 15.8142 30.2308C16.1301 30.5467 16.2881 30.9293 16.2881 31.3784C16.2881 31.8273 16.1301 32.2097 15.8142 32.5257C15.4979 32.8419 15.1154 33 14.6665 33C14.2176 33 13.8351 32.8419 13.5188 32.5257ZM29.3332 33C28.8843 33 28.5018 32.8419 28.1855 32.5257C27.8696 32.2097 27.7116 31.8273 27.7116 31.3784C27.7116 30.9293 27.8696 30.5467 28.1855 30.2308C28.5018 29.9145 28.8843 29.7564 29.3332 29.7564C29.782 29.7564 30.1646 29.9145 30.4808 30.2308C30.7968 30.5467 30.9548 30.9293 30.9548 31.3784C30.9548 31.8273 30.7968 32.2097 30.4808 32.5257C30.1646 32.8419 29.782 33 29.3332 33Z" fill="#FDB541"/>
</svg>
