<svg width="38" height="38" viewBox="0 0 38 38" fill="none" xmlns="http://www.w3.org/2000/svg">
<path d="M5.96838 19.3539L5.3295 19.7766L3.99238 21.0259M5.71425 19.2874L4.75713 20.0949C4.35338 20.4416 3.73825 20.9594 3.73825 20.9594" fill="#D94437"/>
<path d="M17.4111 30.2243C17.4349 29.2434 17.0121 26.9278 18.6342 25.2914C20.3039 23.6028 23.7191 23.1159 23.9424 22.9283C24.5456 22.3796 24.7902 21.6766 24.966 20.957C23.2774 21.5151 20.8644 19.6888 19.456 16.7176C18.5677 14.8414 19.0736 12.1434 19.361 10.7588C18.3635 10.5046 17.385 10.5878 16.3899 11.4261C15.5847 12.1078 14.8817 14.3308 13.1907 16.036C10.8157 18.4348 7.47887 18.4728 6.12749 19.2446C5.61924 19.4774 4.97562 19.9453 4.35337 20.5723C4.02808 20.9022 3.73022 21.258 3.46274 21.6363C2.52191 22.8639 2.06121 24.3925 2.16702 25.9355C2.27284 27.4785 2.9379 28.93 4.03749 30.0176L6.60962 32.5636C7.67561 33.6175 9.07934 34.2613 10.5735 34.3817C12.0676 34.502 13.5563 34.0912 14.7772 33.2215C15.1477 32.9983 15.5895 32.6658 16.0336 32.2501C16.9361 31.407 17.5204 30.5354 17.4111 30.2243Z" fill="#D94437"/>
<path d="M16.8649 25.7663C17.0002 25.5098 17.3802 24.9018 18.2756 23.9993C19.057 23.2037 21.2135 22.6503 21.318 22.5624C21.6054 22.3036 21.527 21.9046 21.6077 21.5626C20.8097 21.8262 18.8005 19.9571 18.1355 18.5558C17.7175 17.6723 17.5156 17.1474 17.6534 16.4943C17.1855 16.3756 17.1926 16.5323 16.7247 16.9289C16.3447 17.2496 16.0146 18.2969 15.2166 19.1021C14.0647 20.2658 12.2621 20.5033 11.9082 20.7337L10.9345 21.3441C9.728 22.5434 9.728 24.5289 10.9036 25.6903L12.1149 26.8921C12.6803 27.4499 13.444 27.7607 14.2383 27.7562C15.0326 27.7518 15.7927 27.4325 16.3519 26.8683L16.8649 25.7663Z" fill="#FBE9EB"/>
<path d="M16.9076 23.572L15.1121 21.7979L31.1576 5.98511L32.5541 7.36736L16.9076 23.572Z" fill="#5B4037"/>
<path d="M31.4165 9.51895L28.4929 7.88733L33.1241 3.5957L35.8459 5.03495L31.4165 9.51895Z" fill="#5A4035"/>
<path d="M10.3502 24.0278L14.1099 27.7494L13.0554 28.8181L9.29575 25.0941L10.3502 24.0278ZM12.3571 21.9995L16.1167 25.7188L14.972 26.8754L11.21 23.1561L12.3571 21.9995Z" fill="#4B5359"/>
</svg>
