<svg width="15" height="15" viewBox="0 0 15 15" fill="none" xmlns="http://www.w3.org/2000/svg">
<path d="M8.29856 7.08469C8.5194 6.86396 8.62981 6.59776 8.62981 6.28609C8.62981 5.97443 8.5194 5.70818 8.29856 5.48734C8.07783 5.26661 7.81164 5.15625 7.49997 5.15625C7.1883 5.15625 6.92211 5.26661 6.70138 5.48734C6.48054 5.70818 6.37013 5.97443 6.37013 6.28609C6.37013 6.59776 6.48054 6.86396 6.70138 7.08469C6.92211 7.30542 7.1883 7.41578 7.49997 7.41578C7.81164 7.41578 8.07783 7.30542 8.29856 7.08469ZM7.49997 12.1959C8.72268 11.1014 9.65836 10.0515 10.307 9.04625C10.9556 8.04104 11.28 7.16062 11.28 6.405C11.28 5.26562 10.918 4.32896 10.194 3.595C9.47007 2.86104 8.57205 2.49406 7.49997 2.49406C6.42789 2.49406 5.52987 2.86104 4.80591 3.595C4.08195 4.32896 3.71997 5.26562 3.71997 6.405C3.71997 7.16062 4.04429 8.04104 4.69294 9.04625C5.34159 10.0515 6.27726 11.1014 7.49997 12.1959ZM7.49997 13.4434C5.92705 12.0805 4.74757 10.8121 3.96153 9.63828C3.17549 8.46432 2.78247 7.38656 2.78247 6.405C2.78247 4.96271 3.24898 3.79505 4.182 2.90203C5.11513 2.00901 6.22112 1.5625 7.49997 1.5625C8.77882 1.5625 9.88481 2.00901 10.8179 2.90203C11.751 3.79505 12.2175 4.96271 12.2175 6.405C12.2175 7.38656 11.8244 8.46432 11.0384 9.63828C10.2524 10.8121 9.07289 12.0805 7.49997 13.4434Z" fill="#FDB541"/>
</svg>
