<svg width="24" height="24" viewBox="0 0 24 24" fill="none" xmlns="http://www.w3.org/2000/svg">
<path d="M12.0288 20.4999C9.6678 20.4999 7.66089 19.6734 6.00805 18.0206C4.35539 16.3679 3.52905 14.361 3.52905 11.9999C3.52905 9.73702 4.29664 7.79635 5.8318 6.17785C7.36697 4.55919 9.24672 3.68252 11.4711 3.54785C11.6147 3.54785 11.7558 3.55302 11.8943 3.56335C12.0326 3.57368 12.1685 3.5891 12.3018 3.6096C11.7916 4.08644 11.3853 4.66268 11.0828 5.33835C10.7801 6.01402 10.6288 6.73452 10.6288 7.49985C10.6288 9.13869 11.2025 10.5318 12.3498 11.6791C13.497 12.8263 14.89 13.3999 16.5288 13.3999C17.3045 13.3999 18.0276 13.2486 18.6981 12.9461C19.3686 12.6434 19.9391 12.237 20.4096 11.7269C20.4301 11.8602 20.4455 11.9961 20.4558 12.1346C20.466 12.2729 20.4711 12.4139 20.4711 12.5576C20.3429 14.7819 19.4696 16.6617 17.8511 18.1969C16.2324 19.7322 14.2916 20.4999 12.0288 20.4999ZM12.0288 18.9999C13.4955 18.9999 14.8121 18.5957 15.9788 17.7874C17.1455 16.979 17.9955 15.9249 18.5288 14.6249C18.1955 14.7082 17.8621 14.7749 17.5288 14.8249C17.1955 14.8749 16.8621 14.8999 16.5288 14.8999C14.4788 14.8999 12.733 14.179 11.2913 12.7374C9.84964 11.2957 9.1288 9.54985 9.1288 7.49985C9.1288 7.16652 9.1538 6.83319 9.2038 6.49985C9.2538 6.16652 9.32047 5.83319 9.4038 5.49985C8.1038 6.03319 7.04964 6.88319 6.2413 8.04985C5.43297 9.21652 5.0288 10.5332 5.0288 11.9999C5.0288 13.9332 5.71214 15.5832 7.0788 16.9499C8.44547 18.3165 10.0955 18.9999 12.0288 18.9999Z" fill="#1B263B"/>
</svg>
