<svg width="24" height="24" viewBox="0 0 24 24" fill="none" xmlns="http://www.w3.org/2000/svg">
<path d="M12.0407 24C8.69614 24 5.85315 22.83 3.51175 20.49C1.17058 18.1502 0 15.3089 0 11.966C0 8.76239 1.08736 6.01487 3.26207 3.72345C5.43678 1.43181 8.09963 0.190656 11.2506 0C11.4541 0 11.654 0.0073146 11.8502 0.0219441C12.0462 0.0365737 12.2386 0.0584013 12.4275 0.0874244C11.7048 0.762507 11.1291 1.57834 10.7006 2.53492C10.2719 3.49151 10.0575 4.51156 10.0575 5.59509C10.0575 7.91529 10.8701 9.88757 12.4955 11.5119C14.1205 13.136 16.0938 13.9481 18.4154 13.9481C19.5142 13.9481 20.5385 13.734 21.4884 13.3057C22.4382 12.8772 23.2464 12.3018 23.9129 11.5795C23.9419 11.7683 23.9638 11.9607 23.9784 12.1568C23.9928 12.3526 24 12.5523 24 12.7557C23.8184 15.9048 22.5813 18.5661 20.2885 20.7395C17.9955 22.9132 15.2463 24 12.0407 24ZM12.0407 21.8764C14.1184 21.8764 15.9836 21.3042 17.6363 20.1597C19.289 19.0153 20.4931 17.5229 21.2486 15.6824C20.7764 15.8004 20.3042 15.8948 19.832 15.9656C19.3598 16.0363 18.8876 16.0717 18.4154 16.0717C15.5114 16.0717 13.0382 15.0512 10.996 13.0101C8.95372 10.9691 7.93259 8.49741 7.93259 5.59509C7.93259 5.12317 7.96801 4.65125 8.03884 4.17933C8.10967 3.70741 8.20411 3.23549 8.32216 2.76357C6.48058 3.51864 4.98725 4.72204 3.84217 6.37376C2.69708 8.02548 2.12454 9.88957 2.12454 11.966C2.12454 14.7032 3.09255 17.0392 5.02857 18.974C6.96458 20.9089 9.30197 21.8764 12.0407 21.8764Z" fill="#1B263B"/>
</svg>
