<svg width="44" height="44" viewBox="0 0 44 44" fill="none" xmlns="http://www.w3.org/2000/svg">
<path d="M9.36413 13.2563C8.97638 12.7956 8.67617 12.2949 8.4635 11.7544C8.25053 11.2139 8.14404 10.6451 8.14404 10.048C8.14404 8.64949 8.63476 7.45965 9.61621 6.47851C10.5973 5.49707 11.7872 5.00635 13.1857 5.00635C14.5842 5.00635 15.7742 5.49707 16.7557 6.47851C17.7368 7.45965 18.2274 8.64949 18.2274 10.048C18.2274 10.6451 18.121 11.2139 17.9084 11.7544C17.6957 12.2949 17.3955 12.7956 17.0078 13.2563H9.36413ZM18.5097 38.9936C16.6693 38.9936 15.0927 38.3373 13.7797 37.0246C12.467 35.7116 11.8107 34.135 11.8107 32.2946H10.1891L8.46167 15.1603H17.9102L16.1828 32.2946H14.5607C14.5607 33.3854 14.9462 34.3163 15.7171 35.0872C16.488 35.8581 17.4189 36.2436 18.5097 36.2436C19.6002 36.2436 20.531 35.8581 21.3019 35.0872C22.0728 34.3163 22.4583 33.3854 22.4583 32.2946V11.7053C22.4583 9.86499 23.1146 8.28832 24.4273 6.97535C25.7399 5.66268 27.3164 5.00635 29.1568 5.00635C30.9972 5.00635 32.5738 5.66268 33.8868 6.97535C35.1995 8.28832 35.8558 9.86499 35.8558 11.7053V38.9936H33.1058V11.7053C33.1058 10.6145 32.7203 9.68364 31.9494 8.91272C31.1785 8.14181 30.2476 7.75635 29.1568 7.75635C28.0663 7.75635 27.1355 8.14181 26.3646 8.91272C25.5937 9.68364 25.2083 10.6145 25.2083 11.7053V32.2946C25.2083 34.135 24.5519 35.7116 23.2393 37.0246C21.9266 38.3373 20.3501 38.9936 18.5097 38.9936ZM12.6605 29.5451H13.711L14.8641 17.9103H11.5078L12.6605 29.5451ZM13.711 17.9103H11.5078H14.8641H13.711Z" fill="#FDB541"/>
</svg>
