<svg width="44" height="44" viewBox="0 0 44 44" fill="none" xmlns="http://www.w3.org/2000/svg">
<path d="M9.36461 13.2563C8.97686 12.7956 8.67666 12.2949 8.46399 11.7544C8.25102 11.2139 8.14453 10.6451 8.14453 10.048C8.14453 8.64949 8.63525 7.45965 9.6167 6.47851C10.5978 5.49707 11.7877 5.00635 13.1862 5.00635C14.5847 5.00635 15.7747 5.49707 16.7562 6.47851C17.7373 7.45965 18.2279 8.64949 18.2279 10.048C18.2279 10.6451 18.1215 11.2139 17.9089 11.7544C17.6962 12.2949 17.396 12.7956 17.0082 13.2563H9.36461ZM18.5102 38.9936C16.6698 38.9936 15.0932 38.3373 13.7802 37.0246C12.4675 35.7116 11.8112 34.135 11.8112 32.2946H10.1896L8.46216 15.1603H17.9107L16.1832 32.2946H14.5612C14.5612 33.3854 14.9467 34.3163 15.7176 35.0872C16.4885 35.8581 17.4194 36.2436 18.5102 36.2436C19.6007 36.2436 20.5314 35.8581 21.3024 35.0872C22.0733 34.3163 22.4587 33.3854 22.4587 32.2946V11.7053C22.4587 9.86499 23.1151 8.28832 24.4277 6.97535C25.7404 5.66268 27.3169 5.00635 29.1573 5.00635C30.9976 5.00635 32.5743 5.66268 33.8873 6.97535C35.1999 8.28832 35.8563 9.86499 35.8563 11.7053V38.9936H33.1063V11.7053C33.1063 10.6145 32.7208 9.68364 31.9499 8.91272C31.179 8.14181 30.2481 7.75635 29.1573 7.75635C28.0668 7.75635 27.136 8.14181 26.3651 8.91272C25.5942 9.68364 25.2087 10.6145 25.2087 11.7053V32.2946C25.2087 34.135 24.5524 35.7116 23.2397 37.0246C21.9271 38.3373 20.3506 38.9936 18.5102 38.9936ZM12.6609 29.5451H13.7114L14.8646 17.9103H11.5082L12.6609 29.5451ZM13.7114 17.9103H11.5082H14.8646H13.7114Z" fill="#FDB541"/>
</svg>
