<svg width="29" height="29" viewBox="0 0 29 29" fill="none" xmlns="http://www.w3.org/2000/svg">
<path d="M4.93911 22.5507C4.30474 21.9163 3.98755 21.146 3.98755 20.2397C3.98755 19.3335 4.30474 18.5632 4.93911 17.9288C5.57349 17.2944 6.3438 16.9772 7.25005 16.9772C7.71324 16.9772 8.1563 17.0678 8.57922 17.2491C9.00213 17.4303 9.36463 17.7022 9.66672 18.0647V7.91471L22.6865 5.49805V17.823C22.6865 18.7293 22.3693 19.4996 21.7349 20.134C21.1006 20.7684 20.3303 21.0855 19.424 21.0855C18.5178 21.0855 17.7474 20.7684 17.1131 20.134C16.4787 19.4996 16.1615 18.7293 16.1615 17.823C16.1615 16.9168 16.4787 16.1465 17.1131 15.5121C17.7474 14.8777 18.5178 14.5605 19.424 14.5605C19.8872 14.5605 20.3303 14.6512 20.7532 14.8324C21.1761 15.0137 21.5386 15.2855 21.8407 15.648V10.0293L10.5125 12.1439V20.2397C10.5125 21.146 10.1954 21.9163 9.56099 22.5507C8.92661 23.185 8.1563 23.5022 7.25005 23.5022C6.3438 23.5022 5.57349 23.185 4.93911 22.5507Z" fill="#1B263B"/>
</svg>
