<svg width="47" height="47" viewBox="0 0 47 47" fill="none" xmlns="http://www.w3.org/2000/svg">
<path d="M8.00459 36.5474C6.97646 35.5193 6.4624 34.2708 6.4624 32.8021C6.4624 31.3333 6.97646 30.0849 8.00459 29.0568C9.03271 28.0286 10.2812 27.5146 11.7499 27.5146C12.5006 27.5146 13.2187 27.6614 13.9041 27.9552C14.5895 28.2489 15.177 28.6896 15.6666 29.2771V12.8271L36.7676 8.9104V28.8854C36.7676 30.3542 36.2535 31.6026 35.2254 32.6307C34.1973 33.6588 32.9489 34.1729 31.4801 34.1729C30.0114 34.1729 28.7629 33.6588 27.7348 32.6307C26.7067 31.6026 26.1926 30.3542 26.1926 28.8854C26.1926 27.4167 26.7067 26.1682 27.7348 25.1401C28.7629 24.112 30.0114 23.5979 31.4801 23.5979C32.2308 23.5979 32.9489 23.7448 33.6343 24.0385C34.3197 24.3323 34.9072 24.7729 35.3968 25.3604V16.2542L17.0374 19.6812V32.8021C17.0374 34.2708 16.5233 35.5193 15.4952 36.5474C14.4671 37.5755 13.2187 38.0896 11.7499 38.0896C10.2812 38.0896 9.03271 37.5755 8.00459 36.5474Z" fill="#FDB541"/>
</svg>
