<svg width="30" height="30" viewBox="0 0 30 30" fill="none" xmlns="http://www.w3.org/2000/svg">
<path d="M2.49219 5.61914H28.0841V17.4598H2.49219V5.61914Z" fill="black"/>
<path d="M6.07129 11.9775H8.28004V24.0357H6.07129V11.9775ZM9.27941 11.9775H11.4882V24.0357H9.27941V11.9775ZM12.4857 11.9775H14.6944V24.0357H12.4857V11.9775ZM19.9875 11.9775H22.1963V24.0357H19.9875V11.9775ZM23.1957 11.9775H25.4025V24.0357H23.1957V11.9775Z" fill="black"/>
<path d="M27.2155 28.0184H3.36176C2.88599 28.017 2.43017 27.8272 2.09392 27.4906C1.75768 27.154 1.56837 26.698 1.56738 26.2222V6.63219C1.56837 6.15642 1.75768 5.7004 2.09392 5.3638C2.43017 5.02721 2.88599 4.83742 3.36176 4.83594H27.2155C27.6916 4.83693 28.1479 5.02649 28.4846 5.36314C28.8212 5.69979 29.0108 6.1561 29.0118 6.63219V26.2222C29.0118 27.2141 28.2055 28.0184 27.2155 28.0184ZM3.36176 5.93656C3.17709 5.93706 3.00016 6.01076 2.86976 6.14152C2.73936 6.27227 2.66613 6.4494 2.66613 6.63406V26.2241C2.66613 26.6084 2.97926 26.9216 3.36176 26.9216H27.2155C27.4003 26.9211 27.5775 26.8474 27.7082 26.7167C27.8389 26.586 27.9125 26.4089 27.913 26.2241V6.63219C27.9125 6.44735 27.8389 6.27023 27.7082 6.13953C27.5775 6.00883 27.4003 5.93518 27.2155 5.93469H3.36176V5.93656Z" fill="black"/>
<path d="M23.1953 11.5389C23.1953 11.7517 23.2372 11.9623 23.3186 12.1589C23.4 12.3554 23.5194 12.534 23.6698 12.6845C23.8202 12.8349 23.9988 12.9542 24.1954 13.0356C24.3919 13.117 24.6026 13.1589 24.8153 13.1589C25.0281 13.1589 25.2387 13.117 25.4353 13.0356C25.6318 12.9542 25.8104 12.8349 25.9608 12.6845C26.1113 12.534 26.2306 12.3554 26.312 12.1589C26.3934 11.9623 26.4353 11.7517 26.4353 11.5389C26.4353 11.3262 26.3934 11.1155 26.312 10.919C26.2306 10.7225 26.1113 10.5439 25.9608 10.3934C25.8104 10.243 25.6318 10.1237 25.4353 10.0423C25.2387 9.96085 25.0281 9.91895 24.8153 9.91895C24.6026 9.91895 24.3919 9.96085 24.1954 10.0423C23.9988 10.1237 23.8202 10.243 23.6698 10.3934C23.5194 10.5439 23.4 10.7225 23.3186 10.919C23.2372 11.1155 23.1953 11.3262 23.1953 11.5389Z" fill="#F7F8F8"/>
<path d="M18.3691 11.5389C18.3691 11.9686 18.5398 12.3806 18.8436 12.6845C19.1474 12.9883 19.5595 13.1589 19.9891 13.1589C20.4188 13.1589 20.8308 12.9883 21.1347 12.6845C21.4385 12.3806 21.6091 11.9686 21.6091 11.5389C21.6091 11.1093 21.4385 10.6972 21.1347 10.3934C20.8308 10.0896 20.4188 9.91895 19.9891 9.91895C19.5595 9.91895 19.1474 10.0896 18.8436 10.3934C18.5398 10.6972 18.3691 11.1093 18.3691 11.5389Z" fill="#F7F8F8"/>
<path d="M3.73828 7.99707H16.0627V13.8208H3.73828V7.99707Z" fill="white"/>
<path d="M6.14258 9.15039H7.19445V12.6679H6.14258V9.15039ZM7.77195 11.1848H8.82383V12.6679H7.77195V11.1848ZM9.40133 10.2679H10.4551V12.6679H9.40133V10.2679ZM11.0307 9.91914H12.0826V12.6679H11.0307V9.91914ZM12.6095 9.15039H13.6632V12.6679H12.6095V9.15039Z" fill="black"/>
</svg>
