<svg width="34" height="34" viewBox="0 0 34 34" fill="none" xmlns="http://www.w3.org/2000/svg">
<path d="M27.7334 15.6911L7.62238 15.5593L7.61176 17.3486C7.90136 17.0359 8.25242 16.7863 8.64294 16.6155C9.03346 16.4448 9.45503 16.3565 9.88126 16.3562H19.5691C20.8335 16.3562 21.9173 17.1148 22.4209 18.2113L27.7164 18.2475L27.7334 15.6911Z" fill="#EAB528"/>
<path d="M3.02814 15.6252H23.137V17.0022H3.02814V15.6252Z" fill="#EAB528"/>
<path d="M22.1106 18.2347C22.1106 16.8726 20.7591 16.6516 19.5011 16.6516H9.87064C8.98239 16.6516 7.53314 16.4731 6.96364 17.0681L6.46426 18.1391" fill="#C59829"/>
<path d="M1.64899 14.6221H3.02599V17.6374H1.64899V14.6221Z" fill="#EAB528"/>
<path d="M11.39 13.8572H12.6671V23.2858H11.39V13.8572ZM13.4491 13.8572H14.7263V23.2858H13.4491V13.8572ZM15.5104 13.8572H16.7875V23.2858H15.5104V13.8572Z" fill="#A57A27"/>
<path d="M8.76137 23.9954L7.60324 22.4463L21.7982 22.4612L20.3022 24.0698L8.76137 23.9954Z" fill="#EAB528"/>
<path d="M19.5691 24.2164H9.88124C7.76474 24.2164 6.04349 22.4654 6.04349 20.3128V19.5712C6.04349 18.5618 6.42174 17.6055 7.10811 16.8745L8.11111 17.8159C7.66502 18.2912 7.41789 18.9193 7.42049 19.5712V20.3149C7.42049 21.7068 8.52549 22.8394 9.88124 22.8394H19.5691C20.9291 22.8394 22.032 21.7068 22.032 20.3149V19.5712C22.0277 19.1802 21.4752 16.9277 21.3244 16.6004L22.5781 16.0267C22.7906 16.4899 23.409 18.9528 23.409 19.5712V20.3149C23.409 22.4654 21.6856 24.2164 19.5691 24.2164ZM31.6965 20.8589L24.4396 16.9064L31.6582 12.8838L31.6965 20.8589ZM10.6739 13.5489H17.4377V14.2204H10.6739V13.5489Z" fill="#EAB528"/>
<path d="M31.0569 12.1592H31.6944V21.5857H31.0569V12.1592Z" fill="#E1B12F"/>
</svg>
