<svg width="28" height="28" viewBox="0 0 28 28" fill="none" xmlns="http://www.w3.org/2000/svg">
<path d="M6.19205 25.0834C5.60269 25.0834 5.10384 24.8792 4.69551 24.4709C4.28717 24.0625 4.08301 23.5637 4.08301 22.9743V7.35906C4.08301 6.7697 4.28717 6.27085 4.69551 5.86252C5.10384 5.45418 5.60269 5.25002 6.19205 5.25002H7.8073V2.78223H9.60222V5.25002H18.442V2.78223H20.192V5.25002H21.8073C22.3967 5.25002 22.8955 5.45418 23.3038 5.86252C23.7122 6.27085 23.9163 6.7697 23.9163 7.35906V22.9743C23.9163 23.5637 23.7122 24.0625 23.3038 24.4709C22.8955 24.8792 22.3967 25.0834 21.8073 25.0834H6.19205ZM6.19205 23.3334H21.8073C21.8971 23.3334 21.9794 23.2959 22.054 23.2211C22.1289 23.1464 22.1663 23.0641 22.1663 22.9743V12.0257H5.83301V22.9743C5.83301 23.0641 5.87044 23.1464 5.9453 23.2211C6.01997 23.2959 6.10222 23.3334 6.19205 23.3334ZM5.83301 10.2757H22.1663V7.35906C22.1663 7.26923 22.1289 7.18698 22.054 7.11231C21.9794 7.03745 21.8971 7.00002 21.8073 7.00002H6.19205C6.10222 7.00002 6.01997 7.03745 5.9453 7.11231C5.87044 7.18698 5.83301 7.26923 5.83301 7.35906V10.2757ZM13.9997 16.4232C13.714 16.4232 13.4706 16.3226 13.2693 16.1213C13.0683 15.9203 12.9678 15.6768 12.9678 15.391C12.9678 15.1053 13.0683 14.8619 13.2693 14.6606C13.4706 14.4596 13.714 14.3591 13.9997 14.3591C14.2853 14.3591 14.5288 14.4596 14.73 14.6606C14.9311 14.8619 15.0316 15.1053 15.0316 15.391C15.0316 15.6768 14.9311 15.9203 14.73 16.1213C14.5288 16.3226 14.2853 16.4232 13.9997 16.4232ZM8.60267 16.1213C8.40162 15.9203 8.30109 15.6768 8.30109 15.391C8.30109 15.1053 8.40162 14.8619 8.60267 14.6606C8.80392 14.4596 9.04737 14.3591 9.33301 14.3591C9.61865 14.3591 9.86209 14.4596 10.0633 14.6606C10.2644 14.8619 10.3649 15.1053 10.3649 15.391C10.3649 15.6768 10.2644 15.9203 10.0633 16.1213C9.86209 16.3226 9.61865 16.4232 9.33301 16.4232C9.04737 16.4232 8.80392 16.3226 8.60267 16.1213ZM18.6663 16.4232C18.3807 16.4232 18.1373 16.3226 17.936 16.1213C17.735 15.9203 17.6344 15.6768 17.6344 15.391C17.6344 15.1053 17.735 14.8619 17.936 14.6606C18.1373 14.4596 18.3807 14.3591 18.6663 14.3591C18.952 14.3591 19.1954 14.4596 19.3967 14.6606C19.5977 14.8619 19.6983 15.1053 19.6983 15.391C19.6983 15.6768 19.5977 15.9203 19.3967 16.1213C19.1954 16.3226 18.952 16.4232 18.6663 16.4232ZM13.9997 21C13.714 21 13.4706 20.8994 13.2693 20.6981C13.0683 20.4971 12.9678 20.2537 12.9678 19.9681C12.9678 19.6823 13.0683 19.4388 13.2693 19.2378C13.4706 19.0365 13.714 18.9359 13.9997 18.9359C14.2853 18.9359 14.5288 19.0365 14.73 19.2378C14.9311 19.4388 15.0316 19.6823 15.0316 19.9681C15.0316 20.2537 14.9311 20.4971 14.73 20.6981C14.5288 20.8994 14.2853 21 13.9997 21ZM8.60267 20.6981C8.40162 20.4971 8.30109 20.2537 8.30109 19.9681C8.30109 19.6823 8.40162 19.4388 8.60267 19.2378C8.80392 19.0365 9.04737 18.9359 9.33301 18.9359C9.61865 18.9359 9.86209 19.0365 10.0633 19.2378C10.2644 19.4388 10.3649 19.6823 10.3649 19.9681C10.3649 20.2537 10.2644 20.4971 10.0633 20.6981C9.86209 20.8994 9.61865 21 9.33301 21C9.04737 21 8.80392 20.8994 8.60267 20.6981ZM18.6663 21C18.3807 21 18.1373 20.8994 17.936 20.6981C17.735 20.4971 17.6344 20.2537 17.6344 19.9681C17.6344 19.6823 17.735 19.4388 17.936 19.2378C18.1373 19.0365 18.3807 18.9359 18.6663 18.9359C18.952 18.9359 19.1954 19.0365 19.3967 19.2378C19.5977 19.4388 19.6983 19.6823 19.6983 19.9681C19.6983 20.2537 19.5977 20.4971 19.3967 20.6981C19.1954 20.8994 18.952 21 18.6663 21Z" fill="white"/>
</svg>
