<svg width="38" height="38" viewBox="0 0 38 38" fill="none" xmlns="http://www.w3.org/2000/svg">
<path d="M5.96841 19.3539L5.32953 19.7766L3.99241 21.0259M5.71428 19.2874L4.75716 20.0949C4.35341 20.4416 3.73828 20.9594 3.73828 20.9594" fill="#D94437"/>
<path d="M17.4113 30.2243C17.4351 29.2434 17.0123 26.9278 18.6345 25.2914C20.3041 23.6028 23.7193 23.1159 23.9426 22.9283C24.5458 22.3796 24.7905 21.6766 24.9662 20.957C23.2776 21.5151 20.8646 19.6888 19.4562 16.7176C18.568 14.8414 19.0738 12.1434 19.3612 10.7588C18.3637 10.5046 17.3852 10.5878 16.3901 11.4261C15.585 12.1078 14.882 14.3308 13.191 16.036C10.816 18.4348 7.47908 18.4728 6.12771 19.2446C5.61946 19.4774 4.97583 19.9453 4.35358 20.5723C4.02829 20.9022 3.73043 21.258 3.46296 21.6363C2.52213 22.8639 2.06142 24.3925 2.16724 25.9355C2.27305 27.4785 2.93811 28.93 4.03771 30.0176L6.60983 32.5636C7.67582 33.6175 9.07956 34.2613 10.5737 34.3817C12.0678 34.502 13.5565 34.0912 14.7775 33.2215C15.148 32.9983 15.5897 32.6658 16.0338 32.2501C16.9363 31.407 17.5206 30.5354 17.4113 30.2243Z" fill="#D94437"/>
<path d="M16.8645 25.7663C16.9999 25.5098 17.3799 24.9018 18.2753 23.9993C19.0567 23.2037 21.2132 22.6503 21.3177 22.5624C21.605 22.3036 21.5267 21.9046 21.6074 21.5626C20.8094 21.8262 18.8002 19.9571 18.1352 18.5558C17.7172 17.6723 17.5153 17.1474 17.653 16.4943C17.1852 16.3756 17.1923 16.5323 16.7244 16.9289C16.3444 17.2496 16.0143 18.2969 15.2163 19.1021C14.0644 20.2658 12.2618 20.5033 11.9079 20.7337L10.9342 21.3441C9.72766 22.5434 9.72766 24.5289 10.9033 25.6903L12.1145 26.8921C12.68 27.4499 13.4436 27.7607 14.2379 27.7562C15.0323 27.7518 15.7924 27.4325 16.3515 26.8683L16.8645 25.7663Z" fill="#FBE9EB"/>
<path d="M16.9078 23.572L15.1123 21.7979L31.1578 5.98511L32.5543 7.36736L16.9078 23.572Z" fill="#5B4037"/>
<path d="M31.4168 9.51895L28.4932 7.88733L33.1244 3.5957L35.8462 5.03495L31.4168 9.51895Z" fill="#5A4035"/>
<path d="M10.3504 24.0278L14.11 27.7494L13.0555 28.8181L9.2959 25.0941L10.3504 24.0278ZM12.3573 21.9995L16.1169 25.7188L14.9721 26.8754L11.2101 23.1561L12.3573 21.9995Z" fill="#4B5359"/>
</svg>
