<svg width="17" height="17" viewBox="0 0 17 17" fill="none" xmlns="http://www.w3.org/2000/svg">
<path d="M5.19225 7H1.80775C1.30258 7 0.875 6.825 0.525 6.475C0.175 6.125 0 5.69742 0 5.19225V1.80775C0 1.30258 0.175 0.875 0.525 0.525C0.875 0.175 1.30258 0 1.80775 0H5.19225C5.69742 0 6.125 0.175 6.475 0.525C6.825 0.875 7 1.30258 7 1.80775V5.19225C7 5.69742 6.825 6.125 6.475 6.475C6.125 6.825 5.69742 7 5.19225 7ZM1.80775 5.5H5.19225C5.28208 5.5 5.35583 5.47117 5.4135 5.4135C5.47117 5.35583 5.5 5.28208 5.5 5.19225V1.80775C5.5 1.71792 5.47117 1.64417 5.4135 1.5865C5.35583 1.52883 5.28208 1.5 5.19225 1.5H1.80775C1.71792 1.5 1.64417 1.52883 1.5865 1.5865C1.52883 1.64417 1.5 1.71792 1.5 1.80775V5.19225C1.5 5.28208 1.52883 5.35583 1.5865 5.4135C1.64417 5.47117 1.71792 5.5 1.80775 5.5ZM5.19225 17H1.80775C1.30258 17 0.875 16.825 0.525 16.475C0.175 16.125 0 15.6974 0 15.1923V11.8078C0 11.3026 0.175 10.875 0.525 10.525C0.875 10.175 1.30258 10 1.80775 10H5.19225C5.69742 10 6.125 10.175 6.475 10.525C6.825 10.875 7 11.3026 7 11.8078V15.1923C7 15.6974 6.825 16.125 6.475 16.475C6.125 16.825 5.69742 17 5.19225 17ZM1.80775 15.5H5.19225C5.28208 15.5 5.35583 15.4712 5.4135 15.4135C5.47117 15.3558 5.5 15.2821 5.5 15.1923V11.8078C5.5 11.7179 5.47117 11.6442 5.4135 11.5865C5.35583 11.5288 5.28208 11.5 5.19225 11.5H1.80775C1.71792 11.5 1.64417 11.5288 1.5865 11.5865C1.52883 11.6442 1.5 11.7179 1.5 11.8078V15.1923C1.5 15.2821 1.52883 15.3558 1.5865 15.4135C1.64417 15.4712 1.71792 15.5 1.80775 15.5ZM15.1923 7H11.8078C11.3026 7 10.875 6.825 10.525 6.475C10.175 6.125 10 5.69742 10 5.19225V1.80775C10 1.30258 10.175 0.875 10.525 0.525C10.875 0.175 11.3026 0 11.8078 0H15.1923C15.6974 0 16.125 0.175 16.475 0.525C16.825 0.875 17 1.30258 17 1.80775V5.19225C17 5.69742 16.825 6.125 16.475 6.475C16.125 6.825 15.6974 7 15.1923 7ZM11.8078 5.5H15.1923C15.2821 5.5 15.3558 5.47117 15.4135 5.4135C15.4712 5.35583 15.5 5.28208 15.5 5.19225V1.80775C15.5 1.71792 15.4712 1.64417 15.4135 1.5865C15.3558 1.52883 15.2821 1.5 15.1923 1.5H11.8078C11.7179 1.5 11.6442 1.52883 11.5865 1.5865C11.5288 1.64417 11.5 1.71792 11.5 1.80775V5.19225C11.5 5.28208 11.5288 5.35583 11.5865 5.4135C11.6442 5.47117 11.7179 5.5 11.8078 5.5ZM15.1923 17H11.8078C11.3026 17 10.875 16.825 10.525 16.475C10.175 16.125 10 15.6974 10 15.1923V11.8078C10 11.3026 10.175 10.875 10.525 10.525C10.875 10.175 11.3026 10 11.8078 10H15.1923C15.6974 10 16.125 10.175 16.475 10.525C16.825 10.875 17 11.3026 17 11.8078V15.1923C17 15.6974 16.825 16.125 16.475 16.475C16.125 16.825 15.6974 17 15.1923 17ZM11.8078 15.5H15.1923C15.2821 15.5 15.3558 15.4712 15.4135 15.4135C15.4712 15.3558 15.5 15.2821 15.5 15.1923V11.8078C15.5 11.7179 15.4712 11.6442 15.4135 11.5865C15.3558 11.5288 15.2821 11.5 15.1923 11.5H11.8078C11.7179 11.5 11.6442 11.5288 11.5865 11.5865C11.5288 11.6442 11.5 11.7179 11.5 11.8078V15.1923C11.5 15.2821 11.5288 15.3558 11.5865 15.4135C11.6442 15.4712 11.7179 15.5 11.8078 15.5Z" fill="#FDB541"/>
</svg>
