<svg width="15" height="15" viewBox="0 0 15 15" fill="none" xmlns="http://www.w3.org/2000/svg">
<path d="M8.29832 7.08469C8.51915 6.86396 8.62957 6.59776 8.62957 6.28609C8.62957 5.97443 8.51915 5.70818 8.29832 5.48734C8.07759 5.26661 7.81139 5.15625 7.49973 5.15625C7.18806 5.15625 6.92186 5.26661 6.70113 5.48734C6.4803 5.70818 6.36988 5.97443 6.36988 6.28609C6.36988 6.59776 6.4803 6.86396 6.70113 7.08469C6.92186 7.30542 7.18806 7.41578 7.49973 7.41578C7.81139 7.41578 8.07759 7.30542 8.29832 7.08469ZM7.49973 12.1959C8.72243 11.1014 9.65811 10.0515 10.3068 9.04625C10.9554 8.04104 11.2797 7.16062 11.2797 6.405C11.2797 5.26562 10.9177 4.32896 10.1938 3.595C9.46983 2.86104 8.57181 2.49406 7.49973 2.49406C6.42764 2.49406 5.52962 2.86104 4.80566 3.595C4.08171 4.32896 3.71973 5.26562 3.71973 6.405C3.71973 7.16062 4.04405 8.04104 4.6927 9.04625C5.34134 10.0515 6.27702 11.1014 7.49973 12.1959ZM7.49973 13.4434C5.92681 12.0805 4.74733 10.8121 3.96129 9.63828C3.17525 8.46432 2.78223 7.38656 2.78223 6.405C2.78223 4.96271 3.24874 3.79505 4.18176 2.90203C5.11488 2.00901 6.22087 1.5625 7.49973 1.5625C8.77858 1.5625 9.88457 2.00901 10.8177 2.90203C11.7507 3.79505 12.2172 4.96271 12.2172 6.405C12.2172 7.38656 11.8242 8.46432 11.0382 9.63828C10.2521 10.8121 9.07264 12.0805 7.49973 13.4434Z" fill="#FDB541"/>
</svg>
