<svg width="24" height="24" viewBox="0 0 24 24" fill="none" xmlns="http://www.w3.org/2000/svg">
<path d="M12.029 20.4999C9.66805 20.4999 7.66113 19.6734 6.0083 18.0206C4.35563 16.3679 3.5293 14.361 3.5293 11.9999C3.5293 9.73702 4.29688 7.79635 5.83205 6.17785C7.36721 4.55919 9.24696 3.68252 11.4713 3.54785C11.615 3.54785 11.756 3.55302 11.8945 3.56335C12.0329 3.57368 12.1687 3.5891 12.302 3.6096C11.7919 4.08644 11.3855 4.66268 11.083 5.33835C10.7804 6.01402 10.629 6.73452 10.629 7.49985C10.629 9.13869 11.2027 10.5318 12.35 11.6791C13.4972 12.8263 14.8902 13.3999 16.529 13.3999C17.3047 13.3999 18.0278 13.2486 18.6983 12.9461C19.3688 12.6434 19.9393 12.237 20.4098 11.7269C20.4303 11.8602 20.4457 11.9961 20.456 12.1346C20.4662 12.2729 20.4713 12.4139 20.4713 12.5576C20.3431 14.7819 19.4698 16.6617 17.8513 18.1969C16.2326 19.7322 14.2919 20.4999 12.029 20.4999ZM12.029 18.9999C13.4957 18.9999 14.8124 18.5957 15.979 17.7874C17.1457 16.979 17.9957 15.9249 18.529 14.6249C18.1957 14.7082 17.8624 14.7749 17.529 14.8249C17.1957 14.8749 16.8624 14.8999 16.529 14.8999C14.479 14.8999 12.7332 14.179 11.2915 12.7374C9.84988 11.2957 9.12905 9.54985 9.12905 7.49985C9.12905 7.16652 9.15405 6.83319 9.20405 6.49985C9.25405 6.16652 9.32071 5.83319 9.40405 5.49985C8.10405 6.03319 7.04988 6.88319 6.24155 8.04985C5.43321 9.21652 5.02905 10.5332 5.02905 11.9999C5.02905 13.9332 5.71238 15.5832 7.07905 16.9499C8.44571 18.3165 10.0957 18.9999 12.029 18.9999Z" fill="white"/>
</svg>
