<svg width="47" height="47" viewBox="0 0 47 47" fill="none" xmlns="http://www.w3.org/2000/svg">
<path d="M8.00508 36.5474C6.97695 35.5193 6.46289 34.2708 6.46289 32.8021C6.46289 31.3333 6.97695 30.0849 8.00508 29.0568C9.0332 28.0286 10.2816 27.5146 11.7504 27.5146C12.5011 27.5146 13.2191 27.6614 13.9046 27.9552C14.59 28.2489 15.1775 28.6896 15.6671 29.2771V12.8271L36.7681 8.9104V28.8854C36.7681 30.3542 36.254 31.6026 35.2259 32.6307C34.1978 33.6588 32.9493 34.1729 31.4806 34.1729C30.0118 34.1729 28.7634 33.6588 27.7353 32.6307C26.7072 31.6026 26.1931 30.3542 26.1931 28.8854C26.1931 27.4167 26.7072 26.1682 27.7353 25.1401C28.7634 24.112 30.0118 23.5979 31.4806 23.5979C32.2313 23.5979 32.9493 23.7448 33.6348 24.0385C34.3202 24.3323 34.9077 24.7729 35.3973 25.3604V16.2542L17.0379 19.6812V32.8021C17.0379 34.2708 16.5238 35.5193 15.4957 36.5474C14.4676 37.5755 13.2191 38.0896 11.7504 38.0896C10.2816 38.0896 9.0332 37.5755 8.00508 36.5474Z" fill="#FDB541"/>
</svg>
