<svg width="34" height="34" viewBox="0 0 34 34" fill="none" xmlns="http://www.w3.org/2000/svg">
<path d="M14.8772 19.3543L21.3754 28.0838L14.1377 17.8838C14.2949 18.398 14.5372 18.8974 14.8772 19.3543Z" fill="#EAB528"/>
<path d="M23.8232 22.0919L26.1437 25.205C26.6834 25.936 26.8258 26.7457 26.4624 27.0177C26.0991 27.2918 25.3595 26.9178 24.8198 26.1889L15.1595 13.2052L15.1574 13.2073L8.94392 5.13867L6.49805 6.9598L14.4094 18.575C14.3807 18.4407 14.3573 18.3053 14.3393 18.1692L21.3773 28.0865L22.6799 29.8397C23.3243 30.7063 24.2389 31.3336 25.2794 31.6226C26.3199 31.9115 27.427 31.8457 28.4259 31.4355C29.1129 31.1552 29.7266 30.7213 30.2202 30.1673C30.7137 29.6132 31.0739 28.9535 31.2732 28.2388C31.4726 27.5241 31.5057 26.7733 31.3702 26.0437C31.2347 25.3142 30.9341 24.6254 30.4914 24.0299L27.2635 19.6949C25.7994 17.7208 25.9205 20.9402 23.8232 22.0919Z" fill="#EAB528"/>
<path d="M28.0671 15.4893L23.8723 15.4935L23.8086 22.132L28.0777 22.1023L28.0671 15.4893Z" fill="#EAB528"/>
<path d="M23.0879 15.5107H28.9529V16.8707H23.0879V15.5107Z" fill="#EAB528"/>
<path d="M9.30493 7.72842L4.14543 8.0408L3.78418 6.12192L8.82043 5.16992L9.30493 7.72842Z" fill="#EAB528"/>
<path d="M5.15767 7.95802L1.9298 8.03452L1.63867 6.49602L4.77092 5.90527L5.15767 7.95802Z" fill="#435861"/>
<path d="M11.373 9.51393L12.2677 8.84668L13.1559 10.0409L12.2634 10.7061L11.373 9.51393ZM13.3068 12.1128L14.1993 11.4477L15.0897 12.6398L14.1972 13.3071L13.3068 12.1128ZM15.2405 14.7138L16.2202 13.9871L17.0064 15.0453L16.0289 15.7742L15.2405 14.7138ZM17.1785 17.3169L18.1582 16.5902L18.9423 17.6463L17.9605 18.3731L17.1785 17.3169ZM19.1165 19.9158L20.315 19.0276L21.437 20.5406L20.2385 21.4309L19.1165 19.9158ZM21.641 23.3116L22.8332 22.4233L23.9594 23.9384L22.7673 24.8267L21.641 23.3116ZM25.5425 22.1577L26.7368 21.2716L27.8609 22.7867L26.6645 23.6728L25.5425 22.1577ZM27.1852 24.3613L28.3794 23.4773L29.4993 24.9903L28.305 25.8743L27.1852 24.3613Z" fill="#B99240"/>
</svg>
