<svg width="34" height="34" viewBox="0 0 34 34" fill="none" xmlns="http://www.w3.org/2000/svg">
<path d="M27.733 15.6911L7.62195 15.5593L7.61133 17.3486C7.90094 17.0359 8.25199 16.7863 8.64251 16.6155C9.03303 16.4448 9.45461 16.3565 9.88083 16.3562H19.5687C20.8331 16.3562 21.9168 17.1148 22.4205 18.2113L27.716 18.2475L27.733 15.6911Z" fill="#EAB528"/>
<path d="M3.02832 15.6252H23.1372V17.0022H3.02832V15.6252Z" fill="#EAB528"/>
<path d="M22.1102 18.2347C22.1102 16.8726 20.7587 16.6516 19.5007 16.6516H9.87024C8.98199 16.6516 7.53274 16.4731 6.96324 17.0681L6.46387 18.1391" fill="#C59829"/>
<path d="M1.64941 14.6221H3.02641V17.6374H1.64941V14.6221Z" fill="#EAB528"/>
<path d="M11.3896 13.8572H12.6668V23.2858H11.3896V13.8572ZM13.4488 13.8572H14.7259V23.2858H13.4488V13.8572ZM15.51 13.8572H16.7871V23.2858H15.51V13.8572Z" fill="#A57A27"/>
<path d="M8.76164 23.9954L7.60352 22.4463L21.7985 22.4612L20.3025 24.0698L8.76164 23.9954Z" fill="#EAB528"/>
<path d="M19.5696 24.2164H9.8817C7.7652 24.2164 6.04395 22.4654 6.04395 20.3128V19.5712C6.04395 18.5618 6.4222 17.6055 7.10857 16.8745L8.11157 17.8159C7.66548 18.2912 7.41835 18.9193 7.42095 19.5712V20.3149C7.42095 21.7068 8.52595 22.8394 9.8817 22.8394H19.5696C20.9296 22.8394 22.0324 21.7068 22.0324 20.3149V19.5712C22.0282 19.1802 21.4757 16.9277 21.3248 16.6004L22.5786 16.0267C22.7911 16.4899 23.4094 18.9528 23.4094 19.5712V20.3149C23.4094 22.4654 21.6861 24.2164 19.5696 24.2164ZM31.6969 20.8589L24.4401 16.9064L31.6587 12.8838L31.6969 20.8589ZM10.6743 13.5489H17.4382V14.2204H10.6743V13.5489Z" fill="#EAB528"/>
<path d="M31.0566 12.1592H31.6941V21.5857H31.0566V12.1592Z" fill="#E1B12F"/>
</svg>
