<svg width="39" height="39" viewBox="0 0 39 39" fill="none" xmlns="http://www.w3.org/2000/svg">
<path d="M19.2835 31.6144C19.2298 31.5657 19.1713 31.5218 19.1201 31.4682C17.9916 30.3031 18.384 28.0898 19.9952 26.5274C21.5235 25.0429 23.0372 24.0923 24.2096 25.0527L25.2529 23.9193C27.1468 22.0789 27.3345 19.1954 24.9726 16.7628L22.9056 14.6397C20.5436 12.2071 17.6576 12.3094 15.7637 14.1497L14.6083 15.1491C14.6203 15.1632 14.6343 15.1755 14.6498 15.1857C15.7783 16.3508 14.8204 17.9791 13.2092 19.5439C11.598 21.1088 9.37502 21.4379 8.24646 20.2728C8.12608 20.1478 8.02132 20.0086 7.93446 19.8584L4.40009 22.9199C2.50615 24.7626 2.8864 28.2263 5.25077 30.6589L8.44634 33.9496C10.8083 36.3822 14.2622 36.8624 16.1561 35.0221L19.2835 31.6144Z" fill="#F29417"/>
<path d="M29.8086 7.88086L31.9171 10.0502L19.2299 22.7691L16.7412 20.2122L29.8086 7.88086ZM6.47443 33.4478L5.75293 32.736L10.4061 27.1761L11.9588 28.7044L6.47443 33.4478Z" fill="#5B4037"/>
<path d="M33.0521 4.36328L35.5408 6.93728L30.6049 11.7075L28.1162 9.13347L33.0521 4.36328Z" fill="#BA632B"/>
<path d="M33.5472 7.75661L35.1389 9.40436L34.1834 10.3257L32.5941 8.67798L33.5472 7.75661ZM31.9019 9.36048L33.4911 11.0058L32.5356 11.9272L30.9464 10.2794L31.9019 9.36048ZM31.1633 3.95898L32.755 5.60673L31.8044 6.52567L30.2102 4.87792L31.1633 3.95898ZM29.5131 5.56042L31.1048 7.2033L30.1517 8.12467L28.5625 6.4818L29.5131 5.56042Z" fill="#5B4035"/>
<path d="M18.3425 24.441L19.3418 25.0821L15.7977 30.6128L14.7983 29.9693L18.3425 24.441ZM9.62109 24.6433L9.00684 23.6245L14.6375 20.2363L15.2493 21.2576L9.62109 24.6433Z" fill="#3D2622"/>
</svg>
