<svg width="33" height="33" viewBox="0 0 33 33" fill="none" xmlns="http://www.w3.org/2000/svg">
<path d="M25.2578 6.46582H26.4994V29.2668H25.2578V6.46582Z" fill="#C2C7E5"/>
<path d="M26.4992 6.04522V5.45947H25.2575V6.04522H22.0586V7.18991H29.696V6.04522H26.4992ZM22.0586 8.10978H29.696V9.25447H22.0586V8.10978Z" fill="#F5BB1B"/>
<path d="M7.04102 6.46582H8.28264V29.2668H7.04102V6.46582Z" fill="#C2C7E5"/>
<path d="M4.35641 4.46729L11.4102 7.40635L10.9688 8.46441L3.91504 5.52535L4.35641 4.46729Z" fill="#F5BB1B"/>
<path d="M2.35352 11.1953H12.5876V12.34H2.35352V11.1953Z" fill="#35464E"/>
<path d="M2.85059 12.3379H12.0926V16.7104H2.85059V12.3379Z" fill="#E72845"/>
<path d="M2.35352 16.7146H12.5876V17.8634H2.35352V16.7146Z" fill="#35464E"/>
<path d="M2.85059 12.3379H12.0926V13.5981H2.85059V12.3379Z" fill="#C7161E"/>
<path d="M4.37891 12.3379H5.73397V15.3161H4.37891V12.3379ZM9.24641 12.3379H10.6035V15.3161H9.24641V12.3379Z" fill="#35464E"/>
<path d="M20.7588 11.1953H30.9929V12.34H20.7588V11.1953Z" fill="#35464E"/>
<path d="M21.2578 12.3379H30.4978V16.7104H21.2578V12.3379Z" fill="#E72845"/>
<path d="M20.7588 16.7146H30.9929V17.8634H20.7588V16.7146Z" fill="#35464E"/>
<path d="M21.2578 12.3379H30.4978V13.5981H21.2578V12.3379Z" fill="#C7161E"/>
<path d="M22.7842 12.3379H24.1372V15.3161H22.7842V12.3379ZM27.6537 12.3379H29.0067V15.3161H27.6537V12.3379Z" fill="#35464E"/>
<path d="M23.44 28.3655L22.3633 29.2627L20.6762 27.2414L21.7508 26.3442L23.44 28.3655ZM11.824 26.3442L12.9006 27.2414L11.2135 29.2627L10.1348 28.3655L11.824 26.3442Z" fill="#C2C7E5"/>
<path d="M9.56152 21.6376C9.56152 22.5897 9.74904 23.5324 10.1134 24.412C10.4777 25.2915 11.0117 26.0907 11.6849 26.7639C12.3581 27.4371 13.1573 27.9711 14.0369 28.3355C14.9164 28.6998 15.8592 28.8873 16.8112 28.8873C17.7633 28.8873 18.706 28.6998 19.5855 28.3355C20.4651 27.9711 21.2643 27.4371 21.9375 26.7639C22.6107 26.0907 23.1447 25.2915 23.509 24.412C23.8734 23.5324 24.0609 22.5897 24.0609 21.6376C24.0609 19.7149 23.2971 17.8709 21.9375 16.5113C20.5779 15.1517 18.7339 14.3879 16.8112 14.3879C14.8885 14.3879 13.0445 15.1517 11.6849 16.5113C10.3253 17.8709 9.56152 19.7149 9.56152 21.6376Z" fill="#526C78"/>
<path d="M16.8112 29.4607C14.7373 29.4585 12.7489 28.6335 11.2826 27.1669C9.81633 25.7002 8.99187 23.7116 8.99023 21.6377C8.99242 19.5641 9.81711 17.576 11.2834 16.1098C12.7496 14.6435 14.7376 13.8188 16.8112 13.8167C18.8848 13.8188 20.8729 14.6435 22.3391 16.1098C23.8054 17.576 24.63 19.5641 24.6322 21.6377C24.6306 23.7116 23.8061 25.7002 22.3398 27.1669C20.8735 28.6335 18.8852 29.4585 16.8112 29.4607ZM16.8112 14.9634C15.0414 14.965 13.3445 15.6687 12.0929 16.9199C10.8413 18.1712 10.1371 19.8678 10.1349 21.6377C10.1349 25.3192 13.1297 28.314 16.8112 28.314C20.4928 28.314 23.4896 25.3192 23.4896 21.6377C23.4869 19.8677 22.7823 18.171 21.5303 16.9198C20.2783 15.6686 18.5812 14.965 16.8112 14.9634Z" fill="#263137"/>
</svg>
